<svg width="14" height="14" viewBox="0 0 14 14" fill="none" xmlns="http://www.w3.org/2000/svg">
<g opacity="0.5" clip-path="url(#clip0_555_1007)">
<path fill-rule="evenodd" clip-rule="evenodd" d="M9.39172 2.62494C9.39172 1.52957 10.2797 0.641602 11.3751 0.641602C12.4704 0.641602 13.3584 1.52957 13.3584 2.62494C13.3584 3.72029 12.4704 4.60827 11.3751 4.60827C10.2797 4.60827 9.39172 3.72029 9.39172 2.62494ZM11.3751 1.6916C10.8596 1.6916 10.4417 2.10947 10.4417 2.62494C10.4417 3.14039 10.8596 3.55827 11.3751 3.55827C11.8905 3.55827 12.3084 3.14039 12.3084 2.62494C12.3084 2.10947 11.8905 1.6916 11.3751 1.6916Z" fill="#56525F"/>
<path fill-rule="evenodd" clip-rule="evenodd" d="M0.641724 11.3749C0.641724 10.2796 1.52969 9.3916 2.62506 9.3916C3.72041 9.3916 4.60839 10.2796 4.60839 11.3749C4.60839 12.4703 3.72041 13.3583 2.62506 13.3583C1.52969 13.3583 0.641724 12.4703 0.641724 11.3749ZM2.62506 10.4416C2.10959 10.4416 1.69172 10.8595 1.69172 11.3749C1.69172 11.8904 2.10959 12.3083 2.62506 12.3083C3.14052 12.3083 3.55839 11.8904 3.55839 11.3749C3.55839 10.8595 3.14052 10.4416 2.62506 10.4416Z" fill="#56525F"/>
<path fill-rule="evenodd" clip-rule="evenodd" d="M0.641724 1.1666C0.641724 0.876652 0.876774 0.641602 1.16672 0.641602H4.08339C4.37334 0.641602 4.60839 0.876652 4.60839 1.1666V4.08327C4.60839 4.37322 4.37334 4.60827 4.08339 4.60827H1.16672C0.876774 4.60827 0.641724 4.37322 0.641724 4.08327V1.1666ZM1.69172 1.6916V3.55827H3.55839V1.6916H1.69172Z" fill="#56525F"/>
<path fill-rule="evenodd" clip-rule="evenodd" d="M9.39172 9.9166C9.39172 9.62665 9.62677 9.3916 9.91672 9.3916H12.8334C13.1233 9.3916 13.3584 9.62665 13.3584 9.9166V12.8333C13.3584 13.1232 13.1233 13.3583 12.8334 13.3583H9.91672C9.62677 13.3583 9.39172 13.1232 9.39172 12.8333V9.9166ZM10.4417 10.4416V12.3083H12.3084V10.4416H10.4417Z" fill="#56525F"/>
<path fill-rule="evenodd" clip-rule="evenodd" d="M3.55835 2.6251C3.55835 2.33515 3.7934 2.1001 4.08335 2.1001H9.91668C10.2066 2.1001 10.4417 2.33515 10.4417 2.6251C10.4417 2.91505 10.2066 3.1501 9.91668 3.1501H4.08335C3.7934 3.1501 3.55835 2.91505 3.55835 2.6251Z" fill="#56525F"/>
<path fill-rule="evenodd" clip-rule="evenodd" d="M3.55835 11.3751C3.55835 11.0851 3.7934 10.8501 4.08335 10.8501H9.91668C10.2066 10.8501 10.4417 11.0851 10.4417 11.3751C10.4417 11.665 10.2066 11.9001 9.91668 11.9001H4.08335C3.7934 11.9001 3.55835 11.665 3.55835 11.3751Z" fill="#56525F"/>
<path fill-rule="evenodd" clip-rule="evenodd" d="M2.62498 3.55835C2.91493 3.55835 3.14998 3.7934 3.14998 4.08335V9.91668C3.14998 10.2066 2.91493 10.4417 2.62498 10.4417C2.33503 10.4417 2.09998 10.2066 2.09998 9.91668V4.08335C2.09998 3.7934 2.33503 3.55835 2.62498 3.55835Z" fill="#56525F"/>
<path fill-rule="evenodd" clip-rule="evenodd" d="M11.375 3.55835C11.6649 3.55835 11.9 3.7934 11.9 4.08335V9.91668C11.9 10.2066 11.6649 10.4417 11.375 10.4417C11.085 10.4417 10.85 10.2066 10.85 9.91668V4.08335C10.85 3.7934 11.085 3.55835 11.375 3.55835Z" fill="#56525F"/>
</g>
<defs>
<clipPath id="clip0_555_1007">
<rect width="14" height="14" fill="white"/>
</clipPath>
</defs>
</svg>
