<svg width="16" height="16" viewBox="0 0 16 16" fill="none" xmlns="http://www.w3.org/2000/svg">
<path fill-rule="evenodd" clip-rule="evenodd" d="M2.33332 3.26665C2.2965 3.26665 2.26665 3.2965 2.26665 3.33332V12.6667C2.26665 12.7035 2.29649 12.7333 2.33332 12.7333H13.6667C13.7035 12.7333 13.7333 12.7035 13.7333 12.6667V3.33332C13.7333 3.29649 13.7035 3.26665 13.6667 3.26665H2.33332ZM1.06665 3.33332C1.06665 2.63376 1.63376 2.06665 2.33332 2.06665H13.6667C14.3662 2.06665 14.9333 2.63376 14.9333 3.33332V12.6667C14.9333 13.3662 14.3662 13.9333 13.6667 13.9333H2.33332C1.63376 13.9333 1.06665 13.3662 1.06665 12.6667V3.33332Z" fill="#56525F"/>
<path fill-rule="evenodd" clip-rule="evenodd" d="M3.73334 5.4999C3.73334 4.8924 4.22583 4.3999 4.83334 4.3999C5.44084 4.3999 5.93334 4.8924 5.93334 5.4999C5.93334 6.10741 5.44084 6.5999 4.83334 6.5999C4.22583 6.5999 3.73334 6.10741 3.73334 5.4999ZM4.83334 5.5999C4.88857 5.5999 4.93334 5.55514 4.93334 5.4999C4.93334 5.44466 4.88857 5.3999 4.83334 5.3999C4.7781 5.3999 4.73334 5.44466 4.73334 5.4999C4.73334 5.55514 4.7781 5.5999 4.83334 5.5999Z" fill="#56525F"/>
<path fill-rule="evenodd" clip-rule="evenodd" d="M8.2111 6.60944C8.41829 6.36772 8.77822 6.32991 9.03112 6.5233L14.6978 10.8566C14.8462 10.9702 14.9333 11.1464 14.9333 11.3333V12.6666C14.9333 13.3662 14.3662 13.9333 13.6667 13.9333H2.33332C1.63376 13.9333 1.06665 13.3662 1.06665 12.6666V11.3333C1.06665 11.1741 1.12986 11.0215 1.24239 10.909L4.57572 7.57566C4.7919 7.35947 5.13607 7.34041 5.3748 7.5314L6.58856 8.5024L8.2111 6.60944ZM8.75292 7.82122L7.1222 9.72373C6.9117 9.96932 6.54441 10.0038 6.29183 9.80177L5.04451 8.80392L2.26665 11.5818V12.6666C2.26665 12.7034 2.29649 12.7333 2.33332 12.7333H13.6667C13.7035 12.7333 13.7333 12.7034 13.7333 12.6666V11.6298L8.75292 7.82122Z" fill="#56525F"/>
</svg>
