<svg width="14" height="14" viewBox="0 0 14 14" fill="none" xmlns="http://www.w3.org/2000/svg">
<g opacity="0.5">
<path fill-rule="evenodd" clip-rule="evenodd" d="M2.62498 2.2751C2.43168 2.2751 2.27498 2.4318 2.27498 2.6251V11.3751C2.27498 11.5684 2.43168 11.7251 2.62498 11.7251H11.375C11.5683 11.7251 11.725 11.5684 11.725 11.3751V2.6251C11.725 2.4318 11.5683 2.2751 11.375 2.2751H2.62498ZM1.22498 2.6251C1.22498 1.8519 1.85178 1.2251 2.62498 1.2251H11.375C12.1482 1.2251 12.775 1.8519 12.775 2.6251V11.3751C12.775 12.1483 12.1482 12.7751 11.375 12.7751H2.62498C1.85178 12.7751 1.22498 12.1483 1.22498 11.3751V2.6251Z" fill="#56525F"/>
<path fill-rule="evenodd" clip-rule="evenodd" d="M4.14172 4.6666C4.14172 4.37665 4.37677 4.1416 4.66672 4.1416H9.33339C9.62334 4.1416 9.85839 4.37665 9.85839 4.6666V5.5416C9.85839 5.83155 9.62334 6.0666 9.33339 6.0666C9.04344 6.0666 8.80839 5.83155 8.80839 5.5416V5.1916H5.19172V5.5416C5.19172 5.83155 4.95667 6.0666 4.66672 6.0666C4.37677 6.0666 4.14172 5.83155 4.14172 5.5416V4.6666Z" fill="#56525F"/>
<path fill-rule="evenodd" clip-rule="evenodd" d="M5.83337 9.91658C5.83337 9.59442 6.09454 9.33325 6.41671 9.33325H7.58337C7.90554 9.33325 8.16671 9.59442 8.16671 9.91658C8.16671 10.2388 7.90554 10.4999 7.58337 10.4999H6.41671C6.09454 10.4999 5.83337 10.2388 5.83337 9.91658Z" fill="#56525F"/>
<path fill-rule="evenodd" clip-rule="evenodd" d="M6.99998 4.7251C7.28993 4.7251 7.52498 4.96015 7.52498 5.2501V9.91676C7.52498 10.2067 7.28993 10.4418 6.99998 10.4418C6.71003 10.4418 6.47498 10.2067 6.47498 9.91676V5.2501C6.47498 4.96015 6.71003 4.7251 6.99998 4.7251Z" fill="#56525F"/>
</g>
</svg>
